<svg width="910" height="270" version="1.1" xmlns="http://www.w3.org/2000/svg" desc="Created with imagetracer.js version 1.2.6" ><path fill="rgb(240,183,67)" stroke="rgb(240,183,67)" stroke-width="1" opacity="0.7607843137254902" d="M 273.5 3 L 882.5 3 Q 895.3 5.3 901 14.5 L 905 24.5 L 905 243.5 Q 903.3 253.8 896.5 259 Q 891.7 263.7 883.5 265 L 280.5 265 L 280.5 264 Q 287.5 264 291.5 261 L 883.5 261 Q 892.4 258.9 897 252.5 L 901 243.5 L 901 24.5 Q 898.3 14.8 890.5 10 L 882.5 7 L 286.5 7 L 277.5 4 L 273.5 4 L 273.5 3 Z " /><path fill="rgb(0,0,0)" stroke="rgb(0,0,0)" stroke-width="1" opacity="0" d="M 229.5 0 L 910 0 L 910 270 L 211 269.5 L 250.5 269 L 251.5 268 L 270.5 267 L 277.5 265 L 883.5 265 Q 893.8 263.3 899 256.5 Q 903.7 251.7 905 243.5 L 905 24.5 Q 902.4 12.6 893.5 7 L 882.5 3 L 269.5 3 L 260.5 1 L 229.5 1 L 229.5 0 Z " /><path fill="rgb(0,0,0)" stroke="rgb(0,0,0)" stroke-width="1" opacity="0" d="M 290.5 7 L 882.5 7 Q 893.2 9.3 898 17.5 L 901 24.5 L 901 243.5 Q 898.9 252.4 892.5 257 L 883.5 261 L 295.5 261 L 295.5 260 Q 333.3 246.8 356 218.5 Q 370.9 200.9 379 176.5 L 384 152.5 L 384 121.5 L 383 120.5 L 383 112.5 L 381 101.5 L 374 80.5 Q 362.2 54.8 342.5 37 L 319.5 20 Q 307 12 290.5 8 L 290.5 7 Z M 337 15 L 338 17 Q 352 23 364 32 Q 383 48 393 74 L 399 97 L 400 112 L 401 113 L 401 129 L 402 130 L 401 156 L 395 181 Q 386 205 371 223 Q 357 240 337 252 L 405 252 L 406 253 L 868 253 L 869 252 L 880 252 L 888 248 L 891 244 L 894 234 L 894 40 L 891 29 L 888 24 L 882 18 L 872 15 L 337 15 Z " /><path fill="rgb(40,43,95)" stroke="rgb(40,43,95)" stroke-width="1" opacity="0.9921568627450981" d="M 206.5 0 L 229 0.5 L 206.5 1 L 206.5 0 Z " /><path fill="rgb(40,43,95)" stroke="rgb(40,43,95)" stroke-width="1" opacity="0.9921568627450981" d="M 249.5 1 L 261 1.5 L 249.5 2 L 249.5 1 Z " /><path fill="rgb(40,43,95)" stroke="rgb(40,43,95)" stroke-width="1" opacity="0.9921568627450981" d="M 263.5 2 L 269 2.5 L 263.5 3 L 263.5 2 Z " /><path fill="rgb(40,43,95)" stroke="rgb(40,43,95)" stroke-width="1" opacity="0.9921568627450981" d="M 270.5 3 L 273 3.5 L 270.5 4 L 270.5 3 Z " /><path fill="rgb(40,43,95)" stroke="rgb(40,43,95)" stroke-width="1" opacity="0.9921568627450981" d="M 297.5 10 L 301 11.5 L 299.5 12 L 297.5 10 Z " /><path fill="rgb(40,43,95)" stroke="rgb(40,43,95)" stroke-width="1" opacity="0.9921568627450981" d="M 302.5 12 Q 332.2 24.3 352 46.5 L 367 67.5 L 365 66.5 Q 356.8 51.2 344.5 40 L 331.5 29 Q 318.8 19.2 302.5 13 L 302.5 12 Z " /><path fill="rgb(40,43,95)" stroke="rgb(40,43,95)" stroke-width="1" opacity="0.9921568627450981" d="M 336.5 15 L 872 15.5 L 339 16.5 L 350 22.5 L 348.5 22 L 337.5 17 L 336.5 15 Z " /><path fill="rgb(40,43,95)" stroke="rgb(40,43,95)" stroke-width="1" opacity="0.9921568627450981" d="M 874.5 16 Q 883.7 17.3 888 23.5 L 891 29.5 L 890 29.5 L 884.5 21 Q 881 17.5 874.5 17 L 874.5 16 Z " /><path fill="rgb(40,43,95)" stroke="rgb(40,43,95)" stroke-width="1" opacity="0.9921568627450981" d="M 351.5 23 Q 364.3 30.3 374 40.5 Q 385.1 51.4 391 67.5 L 390 67.5 Q 381.1 45.4 363.5 32 L 352.5 25 L 351.5 23 Z " /><path fill="rgb(40,43,95)" stroke="rgb(40,43,95)" stroke-width="1" opacity="0.9921568627450981" d="M 892.5 34 L 893 37.5 L 892 37.5 L 892.5 34 Z " /><path fill="rgb(40,43,95)" stroke="rgb(40,43,95)" stroke-width="1" opacity="0.9921568627450981" d="M 893.5 39 L 894 233.5 L 893 233.5 L 893.5 39 Z " /><path fill="rgb(40,43,95)" stroke="rgb(40,43,95)" stroke-width="1" opacity="0.9921568627450981" d="M 367.5 69 L 374 81.5 L 373 81.5 L 367.5 69 Z " /><path fill="rgb(40,43,95)" stroke="rgb(40,43,95)" stroke-width="1" opacity="0.9921568627450981" d="M 391.5 69 L 393 72.5 L 392 72.5 L 391.5 69 Z " /><path fill="rgb(40,43,95)" stroke="rgb(40,43,95)" stroke-width="1" opacity="0.9921568627450981" d="M 395.5 80 L 396 82.5 L 395 82.5 L 395.5 80 Z " /><path fill="rgb(40,43,95)" stroke="rgb(40,43,95)" stroke-width="1" opacity="0.9921568627450981" d="M 374.5 83 L 376 86.5 L 375 86.5 L 374.5 83 Z " /><path fill="rgb(40,43,95)" stroke="rgb(40,43,95)" stroke-width="1" opacity="0.9921568627450981" d="M 396.5 84 L 397 86.5 L 396 86.5 L 396.5 84 Z " /><path fill="rgb(40,43,95)" stroke="rgb(40,43,95)" stroke-width="1" opacity="0.9921568627450981" d="M 397.5 88 L 398 90.5 L 397 90.5 L 397.5 88 Z " /><path fill="rgb(40,43,95)" stroke="rgb(40,43,95)" stroke-width="1" opacity="0.9921568627450981" d="M 398.5 92 L 399 95.5 L 398 95.5 L 398.5 92 Z " /><path fill="rgb(40,43,95)" stroke="rgb(40,43,95)" stroke-width="1" opacity="0.9921568627450981" d="M 378.5 94 L 380 99.5 L 379 99.5 L 378.5 94 Z " /><path fill="rgb(40,43,95)" stroke="rgb(40,43,95)" stroke-width="1" opacity="0.9921568627450981" d="M 399.5 98 L 400 102.5 L 399 102.5 L 399.5 98 Z " /><path fill="rgb(40,43,95)" stroke="rgb(40,43,95)" stroke-width="1" opacity="0.9921568627450981" d="M 380.5 101 L 381 104.5 L 380 104.5 L 380.5 101 Z " /><path fill="rgb(40,43,95)" stroke="rgb(40,43,95)" stroke-width="1" opacity="0.9921568627450981" d="M 400.5 105 L 401 111.5 L 400 111.5 L 400.5 105 Z " /><path fill="rgb(40,43,95)" stroke="rgb(40,43,95)" stroke-width="1" opacity="0.9921568627450981" d="M 381.5 106 L 382 109.5 L 381 109.5 L 381.5 106 Z " /><path fill="rgb(40,43,95)" stroke="rgb(40,43,95)" stroke-width="1" opacity="0.9921568627450981" d="M 382.5 112 L 383 117.5 L 382 117.5 L 382.5 112 Z " /><path fill="rgb(40,43,95)" stroke="rgb(40,43,95)" stroke-width="1" opacity="0.9921568627450981" d="M 401.5 114 L 402 128.5 L 401 128.5 L 401.5 114 Z " /><path fill="rgb(40,43,95)" stroke="rgb(40,43,95)" stroke-width="1" opacity="0.9921568627450981" d="M 383.5 121 L 384 152.5 L 383 152.5 L 383.5 121 Z " /><path fill="rgb(40,43,95)" stroke="rgb(40,43,95)" stroke-width="1" opacity="0.9921568627450981" d="M 401.5 145 L 402 153.5 L 401 153.5 L 401.5 145 Z " /><path fill="rgb(40,43,95)" stroke="rgb(40,43,95)" stroke-width="1" opacity="0.9921568627450981" d="M 382.5 155 L 383 159.5 L 382 159.5 L 382.5 155 Z " /><path fill="rgb(40,43,95)" stroke="rgb(40,43,95)" stroke-width="1" opacity="0.9921568627450981" d="M 400.5 156 L 401 160.5 L 400 160.5 L 400.5 156 Z " /><path fill="rgb(40,43,95)" stroke="rgb(40,43,95)" stroke-width="1" opacity="0.9921568627450981" d="M 381.5 161 L 382 164.5 L 381 164.5 L 381.5 161 Z " /><path fill="rgb(40,43,95)" stroke="rgb(40,43,95)" stroke-width="1" opacity="0.9921568627450981" d="M 399.5 162 L 400 165.5 L 399 165.5 L 399.5 162 Z " /><path fill="rgb(40,43,95)" stroke="rgb(40,43,95)" stroke-width="1" opacity="0.9921568627450981" d="M 380.5 166 L 381 169.5 L 379.5 173 L 379 170.5 L 380.5 166 Z " /><path fill="rgb(40,43,95)" stroke="rgb(40,43,95)" stroke-width="1" opacity="0.9921568627450981" d="M 398.5 167 L 399 169.5 L 398 169.5 L 398.5 167 Z " /><path fill="rgb(40,43,95)" stroke="rgb(40,43,95)" stroke-width="1" opacity="0.9921568627450981" d="M 397.5 171 L 398 173.5 L 396.5 177 L 396 174.5 L 397.5 171 Z " /><path fill="rgb(40,43,95)" stroke="rgb(40,43,95)" stroke-width="1" opacity="0.9921568627450981" d="M 378.5 174 L 379 176.5 L 376.5 182 L 376 180.5 L 378.5 174 Z " /><path fill="rgb(40,43,95)" stroke="rgb(40,43,95)" stroke-width="1" opacity="0.9921568627450981" d="M 394.5 181 L 395 182.5 L 391.5 190 L 391 188.5 L 394.5 181 Z " /><path fill="rgb(40,43,95)" stroke="rgb(40,43,95)" stroke-width="1" opacity="0.9921568627450981" d="M 375.5 183 L 376 184.5 L 374.5 187 L 374 185.5 L 375.5 183 Z " /><path fill="rgb(40,43,95)" stroke="rgb(40,43,95)" stroke-width="1" opacity="0.9921568627450981" d="M 373.5 188 L 374 189.5 Q 360.8 218.3 337.5 237 Q 322.9 249.4 303.5 257 L 303.5 256 Q 334.3 243.3 354 219.5 Q 365.9 205.9 373.5 188 Z " /><path fill="rgb(40,43,95)" stroke="rgb(40,43,95)" stroke-width="1" opacity="0.9921568627450981" d="M 390.5 191 L 391 192.5 L 385.5 202 L 386 200.5 L 390.5 191 Z " /><path fill="rgb(40,43,95)" stroke="rgb(40,43,95)" stroke-width="1" opacity="0.9921568627450981" d="M 384.5 203 L 384 204.5 L 382.5 207 L 383 205.5 L 384.5 203 Z " /><path fill="rgb(40,43,95)" stroke="rgb(40,43,95)" stroke-width="1" opacity="0.9921568627450981" d="M 381.5 208 L 381 209.5 Q 372.2 224.7 359.5 236 Q 350 245.5 337.5 252 L 337.5 251 Q 357.4 239.8 371 222.5 L 381.5 208 Z " /><path fill="rgb(40,43,95)" stroke="rgb(40,43,95)" stroke-width="1" opacity="0.9921568627450981" d="M 892.5 235 L 893 238.5 L 891.5 241 L 891 239.5 L 892.5 235 Z " /><path fill="rgb(40,43,95)" stroke="rgb(40,43,95)" stroke-width="1" opacity="0.9921568627450981" d="M 890.5 242 L 891 243.5 L 887.5 248 L 881.5 251 L 881.5 250 Q 887.6 248.6 890 243.5 L 890.5 242 Z " /><path fill="rgb(40,43,95)" stroke="rgb(40,43,95)" stroke-width="1" opacity="0.9921568627450981" d="M 876.5 251 L 880 251.5 L 876.5 252 L 876.5 251 Z " /><path fill="rgb(40,43,95)" stroke="rgb(40,43,95)" stroke-width="1" opacity="0.9921568627450981" d="M 405.5 252 L 868 252.5 L 405.5 253 L 405.5 252 Z " /><path fill="rgb(40,43,95)" stroke="rgb(40,43,95)" stroke-width="1" opacity="0.9921568627450981" d="M 300.5 257 L 302 257.5 L 298.5 259 L 298.5 258 L 300.5 257 Z " /><path fill="rgb(40,43,95)" stroke="rgb(40,43,95)" stroke-width="1" opacity="0.9921568627450981" d="M 295.5 259 L 297 259.5 L 292.5 261 L 292.5 260 L 295.5 259 Z " /><path fill="rgb(40,43,95)" stroke="rgb(40,43,95)" stroke-width="1" opacity="0.9921568627450981" d="M 277.5 264 L 280 264.5 L 272.5 266 L 272.5 265 L 277.5 264 Z " /><path fill="rgb(40,43,95)" stroke="rgb(40,43,95)" stroke-width="1" opacity="0.9921568627450981" d="M 266.5 266 L 271 266.5 L 266.5 267 L 266.5 266 Z " /><path fill="rgb(40,43,95)" stroke="rgb(40,43,95)" stroke-width="1" opacity="0.9921568627450981" d="M 256.5 267 L 264 267.5 L 256.5 268 L 256.5 267 Z " /><path fill="rgb(40,43,95)" stroke="rgb(40,43,95)" stroke-width="1" opacity="0.9921568627450981" d="M 208.5 268 L 251 268.5 L 197.5 270 L 197.5 269 L 207.5 269 L 208.5 268 Z " /><path fill="rgb(40,43,96)" stroke="rgb(40,43,96)" stroke-width="1" opacity="1" d="M 0 0 L 205.5 0 L 206.5 1 L 248.5 1 L 249.5 2 L 262.5 2 L 263.5 3 L 281.5 5 L 301.5 12 Q 328.9 23.6 348 43.5 Q 368.1 63.4 378 93.5 L 383 118.5 L 383 154.5 L 379 173.5 L 368 199.5 Q 356.1 220.1 338.5 235 Q 322.8 248.3 302.5 257 L 289.5 261 L 287.5 263 L 265.5 267 L 256.5 267 L 255.5 268 L 208.5 268 L 207.5 269 L 197.5 269 L 196.5 270 L 0 270 L 0 0 Z " /><path fill="rgb(40,43,96)" stroke="rgb(40,43,96)" stroke-width="1" opacity="1" d="M 339.5 16 L 873.5 16 Q 881.3 17.7 886 22.5 L 891 30.5 L 893 38.5 L 893 234.5 L 890 243.5 L 884.5 249 L 875.5 252 L 339.5 252 L 340.5 250 Q 355.7 241.2 367 228.5 Q 388 206.5 398 173.5 L 402 153.5 L 402 114.5 L 401 113.5 L 399 92.5 L 391 66.5 Q 382.9 48.6 369.5 36 Q 356.8 24.2 339.5 17 L 339.5 16 Z " /></svg>